<svg version="1.0" xmlns="http://www.w3.org/2000/svg"
 width="1090.53" height="1368.53" viewBox="0.00 0.00 1090.53 1368.53"
>

<g transform="translate(-434.11,1649.74) scale(0.10,-0.10)"
fill="#000000" stroke="none">
<path d="M6604 15764 c-98 -30 -189 -118 -224 -217 -20 -56 -20 -82 -20 -5441
0 -4295 -3 -5386 -12 -5394 -8 -5 -114 -12 -243 -15 -134 -4 -257 -12 -295
-20 -347 -74 -596 -231 -702 -442 -44 -86 -49 -139 -46 -430 l3 -270 1637 -2
c900 -2 1644 0 1652 3 14 5 16 39 16 268 0 292 -8 347 -63 450 -102 192 -354
349 -669 418 -71 15 -144 21 -308 24 -118 3 -225 7 -237 10 l-23 4 0 5373 c0
3508 -4 5387 -10 5415 -26 110 -97 200 -195 247 -73 34 -184 43 -261 19z"/>
<path d="M8910 15423 c-329 -18 -662 -81 -985 -188 -203 -67 -454 -167 -535
-214 -13 -7 -15 -307 -18 -2586 -2 -2452 -1 -2577 15 -2570 728 289 1405 420
1983 386 497 -30 895 -130 1555 -391 833 -329 1148 -416 1638 -452 509 -36
1123 85 1737 344 91 39 177 75 193 81 15 6 27 15 27 20 0 4 -64 72 -143 150
-491 488 -815 983 -995 1522 -61 184 -94 315 -127 508 -37 220 -38 216 43 305
249 276 453 566 625 888 98 185 160 322 278 609 20 50 110 310 137 400 73 237
199 751 188 763 -3 2 -44 -15 -93 -38 -452 -218 -835 -334 -1258 -381 -140
-16 -508 -16 -645 0 -394 45 -799 148 -1335 341 -445 160 -659 233 -865 296
-63 19 -128 38 -145 44 -50 15 -225 58 -325 79 -331 70 -668 100 -950 84z"/>
</g>
</svg>