<svg version="1.0" xmlns="http://www.w3.org/2000/svg"
 width="483.82" height="485.00" viewBox="0.00 0.00 483.82 485.00"
>

<g transform="translate(18.00,467.00) scale(0.10,-0.10)"
fill="#000000" stroke="none">
<path d="M1936 3753 c-36 -109 -69 -204 -73 -211 -5 -8 -38 -24 -75 -37 -37
-13 -95 -37 -130 -53 l-62 -30 -196 98 -197 98 -166 -166 c-92 -92 -167 -173
-167 -180 0 -7 43 -98 95 -202 89 -177 94 -192 81 -213 -14 -22 -48 -101 -80
-189 l-18 -48 -204 -66 -204 -67 0 -242 0 -243 198 -66 c108 -36 203 -69 210
-73 8 -5 24 -38 37 -75 13 -37 37 -95 53 -130 l30 -62 -98 -196 -98 -197 166
-166 c92 -92 173 -167 180 -167 7 0 97 42 200 93 l187 94 81 -36 c45 -20 104
-44 132 -54 l51 -17 68 -205 68 -205 240 0 241 0 26 83 c15 45 45 141 68 213
l41 131 87 32 c48 18 107 42 132 55 l45 24 197 -99 198 -99 170 170 170 171
-99 197 -98 197 30 65 c17 36 40 94 53 130 l22 65 196 66 c108 36 201 70 206
75 7 7 9 98 8 245 l-3 234 -200 67 c-110 37 -203 73 -207 80 -3 7 -21 51 -38
98 -18 47 -41 100 -51 118 l-19 33 99 198 99 198 -166 166 c-92 92 -174 167
-182 166 -8 0 -98 -42 -199 -93 l-184 -93 -101 43 c-56 23 -115 48 -133 54
-31 12 -34 19 -100 216 l-68 204 -241 0 -242 0 -66 -197z m421 19 c6 -4 37
-86 68 -182 31 -96 61 -180 67 -187 5 -7 48 -24 94 -38 45 -14 132 -50 192
-80 l109 -55 179 90 179 89 82 -81 c59 -58 79 -85 74 -97 -3 -9 -44 -90 -89
-179 l-82 -164 55 -109 c30 -61 66 -148 80 -193 14 -46 31 -89 38 -94 7 -5 91
-36 187 -67 96 -32 178 -63 182 -69 4 -6 8 -56 8 -111 0 -55 -4 -105 -8 -111
-4 -6 -86 -37 -182 -69 -96 -31 -180 -62 -187 -68 -6 -7 -28 -62 -48 -124 -21
-62 -57 -147 -82 -190 l-44 -78 83 -165 c45 -91 86 -172 90 -181 4 -12 -17
-39 -75 -97 l-82 -81 -179 89 -179 90 -97 -50 c-54 -27 -139 -63 -191 -81 -52
-17 -99 -36 -106 -42 -6 -7 -37 -91 -68 -187 -31 -96 -62 -178 -68 -182 -7 -4
-57 -8 -112 -8 -55 0 -105 4 -112 8 -6 4 -37 86 -68 182 -31 96 -62 180 -68
187 -7 6 -53 25 -104 42 -50 16 -137 53 -192 80 l-100 51 -163 -82 c-90 -46
-170 -86 -179 -89 -12 -5 -39 15 -97 74 l-81 82 90 180 c80 158 89 182 78 200
-35 56 -91 180 -119 265 -18 52 -37 100 -43 107 -7 6 -91 37 -187 68 -96 32
-178 63 -182 69 -10 14 -10 208 0 222 4 6 86 37 182 69 96 31 180 62 187 68 6
7 28 62 48 124 21 62 57 147 82 190 l44 78 -83 165 c-45 91 -85 172 -89 181
-5 12 15 38 74 97 l82 81 177 -89 178 -90 112 56 c62 30 149 66 194 80 45 13
87 30 92 37 6 7 36 91 67 187 31 96 62 178 68 182 7 4 57 8 112 8 55 0 105 -4
112 -8z"/>
<path d="M2108 3040 c-334 -61 -588 -307 -654 -632 -22 -107 -15 -282 16 -388
76 -266 287 -475 556 -552 113 -32 324 -32 437 0 223 64 404 214 502 417 67
137 80 196 79 360 0 164 -14 225 -79 360 -98 201 -280 354 -495 415 -84 24
-282 35 -362 20z m302 -185 c168 -44 322 -171 397 -325 52 -108 67 -172 67
-285 0 -112 -15 -176 -66 -284 -106 -224 -359 -367 -611 -346 -156 13 -285 73
-397 185 -115 115 -175 248 -186 410 -25 367 290 686 656 665 47 -3 110 -12
140 -20z"/>
</g>
</svg>